<mxfile host="app.diagrams.net" modified="2021-12-28T19:01:38.061Z" agent="5.0 (Macintosh; Intel Mac OS X 10_15_7) AppleWebKit/537.36 (KHTML, like Gecko) Chrome/96.0.4664.110 Safari/537.36" etag="Fm8htrH73SwtkRx5KMmz" version="16.0.3" type="github">
  <diagram id="7V6z3-Z2AGt-YawSaDxu" name="Page-1">
    <mxGraphModel dx="1716" dy="1996" grid="0" gridSize="10" guides="1" tooltips="1" connect="1" arrows="1" fold="1" page="0" pageScale="1" pageWidth="850" pageHeight="1100" math="0" shadow="0">
      <root>
        <mxCell id="0" />
        <mxCell id="1" parent="0" />
        <mxCell id="8fAWCKdKvo1CzNQNeIbV-3" value="" style="edgeStyle=none;curved=1;rounded=0;sketch=1;hachureGap=4;orthogonalLoop=1;jettySize=auto;html=1;fontFamily=Architects Daughter;fontSource=https%3A%2F%2Ffonts.googleapis.com%2Fcss%3Ffamily%3DArchitects%2BDaughter;fontSize=16;endArrow=open;startSize=14;endSize=14;sourcePerimeterSpacing=8;targetPerimeterSpacing=8;" edge="1" parent="1" source="8fAWCKdKvo1CzNQNeIbV-1" target="8fAWCKdKvo1CzNQNeIbV-2">
          <mxGeometry relative="1" as="geometry" />
        </mxCell>
        <mxCell id="8fAWCKdKvo1CzNQNeIbV-1" value="Home page&lt;br&gt;- Log in with Discord&lt;br&gt;&amp;nbsp;Menu: Anki addon&lt;br&gt;Add the bot&lt;br&gt;- Tutorials&lt;br&gt;- support/demo server&lt;br&gt;" style="rounded=0;whiteSpace=wrap;html=1;sketch=1;hachureGap=4;fontFamily=Architects Daughter;fontSource=https%3A%2F%2Ffonts.googleapis.com%2Fcss%3Ffamily%3DArchitects%2BDaughter;fontSize=20;" vertex="1" parent="1">
          <mxGeometry x="-346" y="-359" width="346" height="234" as="geometry" />
        </mxCell>
        <mxCell id="8fAWCKdKvo1CzNQNeIbV-7" value="" style="edgeStyle=none;curved=1;rounded=0;sketch=1;hachureGap=4;orthogonalLoop=1;jettySize=auto;html=1;fontFamily=Architects Daughter;fontSource=https%3A%2F%2Ffonts.googleapis.com%2Fcss%3Ffamily%3DArchitects%2BDaughter;fontSize=16;endArrow=open;startSize=14;endSize=14;sourcePerimeterSpacing=8;targetPerimeterSpacing=8;" edge="1" parent="1" source="8fAWCKdKvo1CzNQNeIbV-2" target="8fAWCKdKvo1CzNQNeIbV-6">
          <mxGeometry relative="1" as="geometry" />
        </mxCell>
        <mxCell id="8fAWCKdKvo1CzNQNeIbV-16" value="" style="edgeStyle=none;curved=1;rounded=0;sketch=1;hachureGap=4;orthogonalLoop=1;jettySize=auto;html=1;fontFamily=Architects Daughter;fontSource=https%3A%2F%2Ffonts.googleapis.com%2Fcss%3Ffamily%3DArchitects%2BDaughter;fontSize=16;endArrow=open;startSize=14;endSize=14;sourcePerimeterSpacing=8;targetPerimeterSpacing=8;" edge="1" parent="1" source="8fAWCKdKvo1CzNQNeIbV-2" target="8fAWCKdKvo1CzNQNeIbV-15">
          <mxGeometry relative="1" as="geometry" />
        </mxCell>
        <mxCell id="8fAWCKdKvo1CzNQNeIbV-2" value="If logged in with Discord:&lt;br&gt;show user profile picture + start studying button" style="whiteSpace=wrap;html=1;sketch=1;hachureGap=4;fontFamily=Architects Daughter;fontSource=https%3A%2F%2Ffonts.googleapis.com%2Fcss%3Ffamily%3DArchitects%2BDaughter;fontSize=20;" vertex="1" parent="1">
          <mxGeometry x="124" y="-289" width="255" height="94" as="geometry" />
        </mxCell>
        <mxCell id="8fAWCKdKvo1CzNQNeIbV-9" value="" style="edgeStyle=none;curved=1;rounded=0;sketch=1;hachureGap=4;orthogonalLoop=1;jettySize=auto;html=1;fontFamily=Architects Daughter;fontSource=https%3A%2F%2Ffonts.googleapis.com%2Fcss%3Ffamily%3DArchitects%2BDaughter;fontSize=16;endArrow=open;startSize=14;endSize=14;sourcePerimeterSpacing=8;targetPerimeterSpacing=8;" edge="1" parent="1" source="8fAWCKdKvo1CzNQNeIbV-6" target="8fAWCKdKvo1CzNQNeIbV-8">
          <mxGeometry relative="1" as="geometry" />
        </mxCell>
        <mxCell id="8fAWCKdKvo1CzNQNeIbV-11" value="" style="edgeStyle=none;curved=1;rounded=0;sketch=1;hachureGap=4;orthogonalLoop=1;jettySize=auto;html=1;fontFamily=Architects Daughter;fontSource=https%3A%2F%2Ffonts.googleapis.com%2Fcss%3Ffamily%3DArchitects%2BDaughter;fontSize=16;endArrow=open;startSize=14;endSize=14;sourcePerimeterSpacing=8;targetPerimeterSpacing=8;" edge="1" parent="1" source="8fAWCKdKvo1CzNQNeIbV-6" target="8fAWCKdKvo1CzNQNeIbV-10">
          <mxGeometry relative="1" as="geometry" />
        </mxCell>
        <mxCell id="8fAWCKdKvo1CzNQNeIbV-6" value="Start Studying:&lt;br&gt;Opens up a room that you are currently at on Discord (the same voice channel you are currently at)" style="whiteSpace=wrap;html=1;sketch=1;hachureGap=4;fontFamily=Architects Daughter;fontSource=https%3A%2F%2Ffonts.googleapis.com%2Fcss%3Ffamily%3DArchitects%2BDaughter;fontSize=20;" vertex="1" parent="1">
          <mxGeometry x="500" y="-316" width="278" height="148" as="geometry" />
        </mxCell>
        <mxCell id="8fAWCKdKvo1CzNQNeIbV-14" style="edgeStyle=none;curved=1;rounded=0;sketch=1;hachureGap=4;orthogonalLoop=1;jettySize=auto;html=1;fontFamily=Architects Daughter;fontSource=https%3A%2F%2Ffonts.googleapis.com%2Fcss%3Ffamily%3DArchitects%2BDaughter;fontSize=16;endArrow=open;startSize=14;endSize=14;sourcePerimeterSpacing=8;targetPerimeterSpacing=8;" edge="1" parent="1" source="8fAWCKdKvo1CzNQNeIbV-8" target="8fAWCKdKvo1CzNQNeIbV-12">
          <mxGeometry relative="1" as="geometry" />
        </mxCell>
        <mxCell id="8fAWCKdKvo1CzNQNeIbV-8" value="If the voice channel has a pomodoro timer associated to it, the timer in that room will be synced with that timer" style="whiteSpace=wrap;html=1;sketch=1;hachureGap=4;fontFamily=Architects Daughter;fontSource=https%3A%2F%2Ffonts.googleapis.com%2Fcss%3Ffamily%3DArchitects%2BDaughter;fontSize=20;" vertex="1" parent="1">
          <mxGeometry x="916" y="-490" width="247" height="160" as="geometry" />
        </mxCell>
        <mxCell id="8fAWCKdKvo1CzNQNeIbV-13" value="" style="edgeStyle=none;curved=1;rounded=0;sketch=1;hachureGap=4;orthogonalLoop=1;jettySize=auto;html=1;fontFamily=Architects Daughter;fontSource=https%3A%2F%2Ffonts.googleapis.com%2Fcss%3Ffamily%3DArchitects%2BDaughter;fontSize=16;endArrow=open;startSize=14;endSize=14;sourcePerimeterSpacing=8;targetPerimeterSpacing=8;" edge="1" parent="1" source="8fAWCKdKvo1CzNQNeIbV-10" target="8fAWCKdKvo1CzNQNeIbV-12">
          <mxGeometry relative="1" as="geometry" />
        </mxCell>
        <mxCell id="8fAWCKdKvo1CzNQNeIbV-10" value="If the room doesn&#39;t have a timer associated with it, allow each user to set their own timer individually, without syncing it with the rest of the room." style="whiteSpace=wrap;html=1;sketch=1;hachureGap=4;fontFamily=Architects Daughter;fontSource=https%3A%2F%2Ffonts.googleapis.com%2Fcss%3Ffamily%3DArchitects%2BDaughter;fontSize=20;" vertex="1" parent="1">
          <mxGeometry x="916" y="-188" width="284" height="163" as="geometry" />
        </mxCell>
        <mxCell id="8fAWCKdKvo1CzNQNeIbV-12" value="Room content:&amp;nbsp;&lt;br&gt;Cards of all users connected with their field of study, daily study time, to-do list, progress to their next league, Anki cards done today,&amp;nbsp;" style="whiteSpace=wrap;html=1;sketch=1;hachureGap=4;fontFamily=Architects Daughter;fontSource=https%3A%2F%2Ffonts.googleapis.com%2Fcss%3Ffamily%3DArchitects%2BDaughter;fontSize=20;" vertex="1" parent="1">
          <mxGeometry x="1324" y="-345" width="321" height="198" as="geometry" />
        </mxCell>
        <mxCell id="8fAWCKdKvo1CzNQNeIbV-18" value="" style="edgeStyle=none;curved=1;rounded=0;sketch=1;hachureGap=4;orthogonalLoop=1;jettySize=auto;html=1;fontFamily=Architects Daughter;fontSource=https%3A%2F%2Ffonts.googleapis.com%2Fcss%3Ffamily%3DArchitects%2BDaughter;fontSize=16;endArrow=open;startSize=14;endSize=14;sourcePerimeterSpacing=8;targetPerimeterSpacing=8;" edge="1" parent="1" source="8fAWCKdKvo1CzNQNeIbV-15" target="8fAWCKdKvo1CzNQNeIbV-17">
          <mxGeometry relative="1" as="geometry" />
        </mxCell>
        <mxCell id="8fAWCKdKvo1CzNQNeIbV-20" value="" style="edgeStyle=none;curved=1;rounded=0;sketch=1;hachureGap=4;orthogonalLoop=1;jettySize=auto;html=1;fontFamily=Architects Daughter;fontSource=https%3A%2F%2Ffonts.googleapis.com%2Fcss%3Ffamily%3DArchitects%2BDaughter;fontSize=16;endArrow=open;startSize=14;endSize=14;sourcePerimeterSpacing=8;targetPerimeterSpacing=8;" edge="1" parent="1" source="8fAWCKdKvo1CzNQNeIbV-15" target="8fAWCKdKvo1CzNQNeIbV-19">
          <mxGeometry relative="1" as="geometry" />
        </mxCell>
        <mxCell id="8fAWCKdKvo1CzNQNeIbV-26" value="" style="edgeStyle=none;curved=1;rounded=0;sketch=1;hachureGap=4;orthogonalLoop=1;jettySize=auto;html=1;fontFamily=Architects Daughter;fontSource=https%3A%2F%2Ffonts.googleapis.com%2Fcss%3Ffamily%3DArchitects%2BDaughter;fontSize=16;endArrow=open;startSize=14;endSize=14;sourcePerimeterSpacing=8;targetPerimeterSpacing=8;" edge="1" parent="1" source="8fAWCKdKvo1CzNQNeIbV-15" target="8fAWCKdKvo1CzNQNeIbV-25">
          <mxGeometry relative="1" as="geometry" />
        </mxCell>
        <mxCell id="8fAWCKdKvo1CzNQNeIbV-28" value="" style="edgeStyle=none;curved=1;rounded=0;sketch=1;hachureGap=4;orthogonalLoop=1;jettySize=auto;html=1;fontFamily=Architects Daughter;fontSource=https%3A%2F%2Ffonts.googleapis.com%2Fcss%3Ffamily%3DArchitects%2BDaughter;fontSize=16;endArrow=open;startSize=14;endSize=14;sourcePerimeterSpacing=8;targetPerimeterSpacing=8;" edge="1" parent="1" source="8fAWCKdKvo1CzNQNeIbV-15" target="8fAWCKdKvo1CzNQNeIbV-27">
          <mxGeometry relative="1" as="geometry" />
        </mxCell>
        <mxCell id="8fAWCKdKvo1CzNQNeIbV-15" value="Clicking on the pfp will lead to a dropdown menu:&lt;br&gt;- Profile&lt;br&gt;- study statistics&lt;br&gt;- to-do list&lt;br&gt;- premium&lt;br&gt;- email preferences&lt;br&gt;- log out" style="whiteSpace=wrap;html=1;sketch=1;hachureGap=4;fontFamily=Architects Daughter;fontSource=https%3A%2F%2Ffonts.googleapis.com%2Fcss%3Ffamily%3DArchitects%2BDaughter;fontSize=20;" vertex="1" parent="1">
          <mxGeometry x="-138" y="92" width="298.5" height="185" as="geometry" />
        </mxCell>
        <mxCell id="8fAWCKdKvo1CzNQNeIbV-17" value="Profile: allow users to change&#xa;a nick name and edit their picture" style="shape=waypoint;sketch=0;size=6;pointerEvents=1;points=[];fillColor=none;resizable=0;rotatable=0;perimeter=centerPerimeter;snapToPoint=1;hachureGap=4;fontFamily=Architects Daughter;fontSource=https%3A%2F%2Ffonts.googleapis.com%2Fcss%3Ffamily%3DArchitects%2BDaughter;fontSize=20;" vertex="1" parent="1">
          <mxGeometry x="292" y="-30" width="40" height="40" as="geometry" />
        </mxCell>
        <mxCell id="8fAWCKdKvo1CzNQNeIbV-19" value="Statistics: allow users to get a deep analysis&#xa;of their study statistics" style="shape=waypoint;sketch=0;size=6;pointerEvents=1;points=[];fillColor=none;resizable=0;rotatable=0;perimeter=centerPerimeter;snapToPoint=1;hachureGap=4;fontFamily=Architects Daughter;fontSource=https%3A%2F%2Ffonts.googleapis.com%2Fcss%3Ffamily%3DArchitects%2BDaughter;fontSize=20;" vertex="1" parent="1">
          <mxGeometry x="428" y="45" width="40" height="40" as="geometry" />
        </mxCell>
        <mxCell id="8fAWCKdKvo1CzNQNeIbV-21" value="To do lists: allow user to edit&#xa;their individual to do list&#xa;without being in a study room&#xa;" style="shape=waypoint;sketch=0;size=6;pointerEvents=1;points=[];fillColor=none;resizable=0;rotatable=0;perimeter=centerPerimeter;snapToPoint=1;hachureGap=4;fontFamily=Architects Daughter;fontSource=https%3A%2F%2Ffonts.googleapis.com%2Fcss%3Ffamily%3DArchitects%2BDaughter;fontSize=20;" vertex="1" parent="1">
          <mxGeometry x="332" y="164.5" width="40" height="40" as="geometry" />
        </mxCell>
        <mxCell id="8fAWCKdKvo1CzNQNeIbV-25" value="Premium: allow users to edit &#xa;their payment settings, cancel membership&#xa;and donate with stripe monthly&#xa;to get access to unique skins for the website&#xa;and their GUIs on Discord." style="shape=waypoint;sketch=0;size=6;pointerEvents=1;points=[];fillColor=none;resizable=0;rotatable=0;perimeter=centerPerimeter;snapToPoint=1;hachureGap=4;fontFamily=Architects Daughter;fontSource=https%3A%2F%2Ffonts.googleapis.com%2Fcss%3Ffamily%3DArchitects%2BDaughter;fontSize=20;" vertex="1" parent="1">
          <mxGeometry x="397" y="275" width="40" height="40" as="geometry" />
        </mxCell>
        <mxCell id="8fAWCKdKvo1CzNQNeIbV-27" value="email preferenes: comply with the regulations&#xa;and allow users to easily unsubscribe and subscribe to&#xa;certain mail lists" style="shape=waypoint;sketch=0;size=6;pointerEvents=1;points=[];fillColor=none;resizable=0;rotatable=0;perimeter=centerPerimeter;snapToPoint=1;hachureGap=4;fontFamily=Architects Daughter;fontSource=https%3A%2F%2Ffonts.googleapis.com%2Fcss%3Ffamily%3DArchitects%2BDaughter;fontSize=20;" vertex="1" parent="1">
          <mxGeometry x="171" y="386" width="40" height="40" as="geometry" />
        </mxCell>
        <mxCell id="8fAWCKdKvo1CzNQNeIbV-29" style="edgeStyle=none;curved=1;rounded=0;sketch=1;hachureGap=4;orthogonalLoop=1;jettySize=auto;html=1;fontFamily=Architects Daughter;fontSource=https%3A%2F%2Ffonts.googleapis.com%2Fcss%3Ffamily%3DArchitects%2BDaughter;fontSize=16;endArrow=open;startSize=14;endSize=14;sourcePerimeterSpacing=8;targetPerimeterSpacing=8;" edge="1" parent="1" source="8fAWCKdKvo1CzNQNeIbV-27" target="8fAWCKdKvo1CzNQNeIbV-27">
          <mxGeometry relative="1" as="geometry" />
        </mxCell>
      </root>
    </mxGraphModel>
  </diagram>
</mxfile>
